<svg xmlns="http://www.w3.org/2000/svg" xmlns:xlink="http://www.w3.org/1999/xlink" width="240" height="45.5" viewBox="0 0 240 45.5">
  <defs>
    <style>
      .cls-1 {
        fill: none;
      }

      .cls-2 {
        clip-path: url(#clip-path);
      }

      .cls-3 {
        fill: #e5e8f2;
      }

      .cls-4, .cls-9 {
        opacity: 0.5;
      }

      .cls-5 {
        fill: #c5c5c9;
      }

      .cls-6 {
        fill: #f3f5fa;
      }

      .cls-7 {
        fill: #36d7e9;
      }

      .cls-8 {
        fill: #c0d8f0;
      }

      .cls-10 {
        fill: #1f1f1f;
      }

      .cls-11 {
        fill: #57443d;
      }
    </style>
    <clipPath id="clip-path">
      <rect class="cls-1" width="240" height="45.5"/>
    </clipPath>
  </defs>
  <g id="Carrier" class="cls-2">
    <g id="Group_184" data-name="Group 184" transform="translate(-705 528.5) rotate(-90)">
      <path id="Path_122" data-name="Path 122" class="cls-3" d="M505.75,705C494.375,705,483,722.205,483,736.319v151.83c0,31.2,11.508,56.851,15.28,56.851h14.94c3.772,0,15.28-25.648,15.28-56.851V736.319C528.5,722.205,517.125,705,505.75,705Z" transform="translate(0 0)"/>
      <path id="Path_123" data-name="Path 123" class="cls-4" d="M490.673,1318.577l5.413.937s3.01,11.624,4.014,12.407,5.536,1.118,8.4,1.118,7.395-.335,8.4-1.118,4.014-12.407,4.014-12.407l6.987-1.209a1.687,1.687,0,0,0,.584-.22q.429-1.767.825-3.623v-5.343H488.7C489.272,1312.446,489.94,1315.611,490.673,1318.577Z" transform="translate(-3.767 -398.461)"/>
      <g id="Group_131" data-name="Group 131" transform="translate(484.943 909.636)">
        <path id="Path_124" data-name="Path 124" class="cls-5" d="M488.721,1306.119v7.508a1.7,1.7,0,0,0,1.409,1.677l6.987,1.209s3.01,11.624,4.013,12.406,5.536,1.118,8.4,1.118,7.395-.335,8.4-1.118,4.013-12.406,4.013-12.406l6.987-1.209a1.7,1.7,0,0,0,1.409-1.677v-7.508Z" transform="translate(-488.721 -1306.119)"/>
      </g>
      <g id="Group_132" data-name="Group 132" transform="translate(484.943 909.636)">
        <path id="Path_125" data-name="Path 125" class="cls-6" d="M497.117,1316.514l-6.987-1.209a1.7,1.7,0,0,1-1.409-1.677v-7.508h41.615v7.508a1.7,1.7,0,0,1-1.409,1.677l-6.987,1.209Z" transform="translate(-488.721 -1306.119)"/>
      </g>
      <path id="Path_126" data-name="Path 126" class="cls-4" d="M525.627,955.511h6.452v2.043h-6.452v2.383a1.02,1.02,0,0,1-1.019,1.021H507.97a1.02,1.02,0,0,1-1.019-1.021v-2.383H500.5v-2.043h6.452V947a1.02,1.02,0,0,1,1.019-1.021h16.638A1.02,1.02,0,0,1,525.627,947Zm0-32.34a1.02,1.02,0,0,0-1.019-1.021H507.97a1.02,1.02,0,0,0-1.019,1.021v8.511H500.5v2.042h6.452v2.383a1.02,1.02,0,0,0,1.019,1.021h16.638a1.02,1.02,0,0,0,1.019-1.021v-2.383h6.452v-2.042h-6.452Zm0-23.83a1.02,1.02,0,0,0-1.019-1.021H507.97a1.02,1.02,0,0,0-1.019,1.021v8.511H500.5v2.043h6.452v2.383a1.02,1.02,0,0,0,1.019,1.021h16.638a1.02,1.02,0,0,0,1.019-1.021v-2.383h6.452v-2.043h-6.452Zm0-23.83a1.02,1.02,0,0,0-1.019-1.021H507.97a1.02,1.02,0,0,0-1.019,1.021v8.511H500.5v2.043h6.452v2.383a1.02,1.02,0,0,0,1.019,1.021h16.638a1.02,1.02,0,0,0,1.019-1.021v-2.383h6.452v-2.043h-6.452Zm0-23.83a1.02,1.02,0,0,0-1.019-1.021H507.97a1.02,1.02,0,0,0-1.019,1.021v8.511H500.5v2.043h6.452v2.383a1.02,1.02,0,0,0,1.019,1.021h16.638a1.02,1.02,0,0,0,1.019-1.021v-2.383h6.452v-2.043h-6.452Zm0-23.83a1.02,1.02,0,0,0-1.019-1.021H507.97a1.02,1.02,0,0,0-1.019,1.021v8.511H500.5V838.4h6.452v2.383a1.02,1.02,0,0,0,1.019,1.021h16.638a1.02,1.02,0,0,0,1.019-1.021V838.4h6.452v-2.043h-6.452Zm0-15.319v-8.511A1.02,1.02,0,0,0,524.608,803H507.97a1.02,1.02,0,0,0-1.019,1.021v8.511H500.5v2.043h6.452v2.383a1.02,1.02,0,0,0,1.019,1.021h16.638a1.02,1.02,0,0,0,1.019-1.021v-2.383h6.452v-2.043Z" transform="translate(-11.558 -64.638)"/>
      <g id="Group_140" data-name="Group 140" transform="translate(489.961 737.34)">
        <g id="Group_133" data-name="Group 133" transform="translate(0 142.979)">
          <rect id="Rectangle_34" data-name="Rectangle 34" class="cls-7" width="31.578" height="2.043" transform="translate(0 9.532)"/>
          <rect id="Rectangle_35" data-name="Rectangle 35" class="cls-7" width="18.675" height="14.979" rx="3" transform="translate(6.451)"/>
        </g>
        <g id="Group_134" data-name="Group 134" transform="translate(0 119.149)">
          <rect id="Rectangle_36" data-name="Rectangle 36" class="cls-7" width="31.578" height="2.043" transform="translate(0 9.532)"/>
          <rect id="Rectangle_37" data-name="Rectangle 37" class="cls-7" width="18.675" height="14.979" rx="3" transform="translate(6.451)"/>
        </g>
        <g id="Group_135" data-name="Group 135" transform="translate(0 95.319)">
          <rect id="Rectangle_38" data-name="Rectangle 38" class="cls-7" width="31.578" height="2.043" transform="translate(0 9.532)"/>
          <rect id="Rectangle_39" data-name="Rectangle 39" class="cls-7" width="18.675" height="14.979" rx="3" transform="translate(6.451)"/>
        </g>
        <g id="Group_136" data-name="Group 136" transform="translate(0 71.489)">
          <rect id="Rectangle_40" data-name="Rectangle 40" class="cls-7" width="31.578" height="2.043" transform="translate(0 9.532)"/>
          <rect id="Rectangle_41" data-name="Rectangle 41" class="cls-7" width="18.675" height="14.979" rx="3" transform="translate(6.451)"/>
        </g>
        <g id="Group_137" data-name="Group 137" transform="translate(0 47.66)">
          <rect id="Rectangle_42" data-name="Rectangle 42" class="cls-7" width="31.578" height="2.043" transform="translate(0 9.532)"/>
          <rect id="Rectangle_43" data-name="Rectangle 43" class="cls-7" width="18.675" height="14.979" rx="3" transform="translate(6.451)"/>
        </g>
        <g id="Group_138" data-name="Group 138" transform="translate(0 23.83)">
          <rect id="Rectangle_44" data-name="Rectangle 44" class="cls-7" width="31.578" height="2.043" transform="translate(0 9.532)"/>
          <rect id="Rectangle_45" data-name="Rectangle 45" class="cls-7" width="18.675" height="14.979" rx="3" transform="translate(6.451)"/>
        </g>
        <g id="Group_139" data-name="Group 139" transform="translate(0 0)">
          <rect id="Rectangle_46" data-name="Rectangle 46" class="cls-7" width="31.578" height="2.043" transform="translate(0 9.532)"/>
          <rect id="Rectangle_47" data-name="Rectangle 47" class="cls-7" width="18.675" height="14.979" rx="3" transform="translate(6.451)"/>
        </g>
      </g>
      <rect id="Rectangle_48" data-name="Rectangle 48" class="cls-4" width="14.261" height="3.745" rx="1.872" transform="translate(498.28 937.681)"/>
      <rect id="Rectangle_49" data-name="Rectangle 49" class="cls-8" width="14.261" height="3.745" rx="1.872" transform="translate(498.619 937.34)"/>
      <g id="Group_141" data-name="Group 141" class="cls-9" transform="translate(492.338 710.447)">
        <path id="Path_127" data-name="Path 127" d="M517.8,757.5a.51.51,0,0,0-.509.511v.511h-5.772v-.511a.509.509,0,1,0-1.019,0V762.1a.509.509,0,1,0,1.019,0v-.511h5.772v.511a.509.509,0,1,0,1.019,0v-4.085A.51.51,0,0,0,517.8,757.5Z" transform="translate(-510.5 -745.075)"/>
        <path id="Path_128" data-name="Path 128" d="M571.8,757.5a.51.51,0,0,0-.509.511v.511h-5.772v-.511a.509.509,0,1,0-1.019,0V762.1a.509.509,0,1,0,1.019,0v-.511h5.772v.511a.509.509,0,1,0,1.019,0v-4.085A.51.51,0,0,0,571.8,757.5Z" transform="translate(-546.164 -745.075)"/>
        <rect id="Rectangle_50" data-name="Rectangle 50" width="4.075" height="6.809" rx="1" transform="translate(11.035)"/>
      </g>
      <g id="Group_148" data-name="Group 148" transform="translate(492.677 710.106)">
        <g id="Group_144" data-name="Group 144" transform="translate(0 12.426)">
          <rect id="Rectangle_51" data-name="Rectangle 51" class="cls-8" width="6.791" height="3.064" transform="translate(0.509 1.021)"/>
          <g id="Group_142" data-name="Group 142">
            <path id="Path_129" data-name="Path 129" class="cls-8" d="M512.009,761.606a.51.51,0,0,1-.509-.511v-4.085a.509.509,0,1,1,1.019,0V761.1A.51.51,0,0,1,512.009,761.606Z" transform="translate(-511.5 -756.5)"/>
          </g>
          <g id="Group_143" data-name="Group 143" transform="translate(6.791)">
            <path id="Path_130" data-name="Path 130" class="cls-8" d="M532.009,761.606a.51.51,0,0,1-.509-.511v-4.085a.509.509,0,1,1,1.019,0V761.1A.51.51,0,0,1,532.009,761.606Z" transform="translate(-531.5 -756.5)"/>
          </g>
        </g>
        <g id="Group_147" data-name="Group 147" transform="translate(18.336 12.426)">
          <rect id="Rectangle_52" data-name="Rectangle 52" class="cls-8" width="6.791" height="3.064" transform="translate(7.3 4.085) rotate(180)"/>
          <g id="Group_145" data-name="Group 145" transform="translate(6.791)">
            <path id="Path_131" data-name="Path 131" class="cls-8" d="M586.009,761.606a.51.51,0,0,1-.509-.511v-4.085a.509.509,0,1,1,1.019,0V761.1A.51.51,0,0,1,586.009,761.606Z" transform="translate(-585.5 -756.5)"/>
          </g>
          <g id="Group_146" data-name="Group 146">
            <path id="Path_132" data-name="Path 132" class="cls-8" d="M566.009,761.606a.51.51,0,0,1-.509-.511v-4.085a.509.509,0,1,1,1.019,0V761.1A.51.51,0,0,1,566.009,761.606Z" transform="translate(-565.5 -756.5)"/>
          </g>
        </g>
        <rect id="Rectangle_53" data-name="Rectangle 53" class="cls-8" width="4.075" height="6.809" rx="1" transform="translate(11.035)"/>
      </g>
      <g id="Group_149" data-name="Group 149" class="cls-9" transform="translate(497.493 923.329)">
        <ellipse id="Ellipse_25" data-name="Ellipse 25" cx="2.484" cy="3.969" rx="2.484" ry="3.969"/>
        <ellipse id="Ellipse_26" data-name="Ellipse 26" cx="2.484" cy="3.969" rx="2.484" ry="3.969" transform="translate(9.507)"/>
      </g>
      <g id="Group_150" data-name="Group 150" transform="translate(498.512 922.308)">
        <ellipse id="Ellipse_27" data-name="Ellipse 27" class="cls-10" cx="2.484" cy="3.969" rx="2.484" ry="3.969"/>
        <ellipse id="Ellipse_28" data-name="Ellipse 28" class="cls-10" cx="2.484" cy="3.969" rx="2.484" ry="3.969" transform="translate(9.507)"/>
      </g>
      <g id="Group_151" data-name="Group 151" class="cls-9" transform="translate(485.037 733.255)">
        <path id="Path_133" data-name="Path 133" d="M534.825,789.021a.682.682,0,0,1,.679.681v.681a1.36,1.36,0,0,0,1.358,1.362h6.389l-.055-1.021h-5.315a1.36,1.36,0,0,1-1.358-1.362v-.681a.682.682,0,0,0-.679-.681H508.679a.682.682,0,0,0-.679.681v.34Z" transform="translate(-501.548 -788)"/>
        <path id="Path_134" data-name="Path 134" d="M493.075,796.95a1.357,1.357,0,0,0,1.322-1.058,1.346,1.346,0,0,1-.3.037H489v1.021Z" transform="translate(-489 -793.205)"/>
        <path id="Path_135" data-name="Path 135" class="cls-11" d="M589.679,1273.1a3.689,3.689,0,0,0,.679-1.362v-.681a1.361,1.361,0,0,0-1.358,1.362v.681Z" transform="translate(-555.045 -1106.614)"/>
      </g>
      <g id="Group_152" data-name="Group 152" transform="translate(483.007 732.574)">
        <path id="Path_136" data-name="Path 136" class="cls-11" d="M487.34,956.063a.34.34,0,0,1-.34-.34V794.34a.34.34,0,1,1,.679,0V955.723A.34.34,0,0,1,487.34,956.063Z" transform="translate(-485.649 -791.277)"/>
        <path id="Path_137" data-name="Path 137" class="cls-11" d="M611.34,956.063a.34.34,0,0,1-.34-.34V794.34a.34.34,0,1,1,.679,0V955.723A.34.34,0,0,1,611.34,956.063Z" transform="translate(-567.545 -791.277)"/>
        <path id="Path_138" data-name="Path 138" class="cls-11" d="M528.511,789.4h-7.127a1.36,1.36,0,0,1-1.358-1.362v-.681a.682.682,0,0,0-.679-.681H492.182a.682.682,0,0,0-.679.681v.681a1.36,1.36,0,0,1-1.358,1.362h-7.12c-.007-.225,0-.453.01-.681h7.11a.682.682,0,0,0,.679-.681v-.681A1.36,1.36,0,0,1,492.182,786h27.164a1.36,1.36,0,0,1,1.358,1.362v.681a.682.682,0,0,0,.679.681h7.11C528.5,788.952,528.511,789.18,528.511,789.4Z" transform="translate(-483.022 -786)"/>
        <path id="Path_139" data-name="Path 139" class="cls-11" d="M528.745,1268.06H521.92a1.361,1.361,0,0,0-1.358,1.362v.681a.681.681,0,0,1-.679.681H492.718a.681.681,0,0,1-.679-.681v-.681a1.361,1.361,0,0,0-1.358-1.362h-6.813a.321.321,0,0,0-.034.007c.015.226.032.45.048.674h6.8a.681.681,0,0,1,.679.681v.681a1.361,1.361,0,0,0,1.358,1.362h27.164a1.361,1.361,0,0,0,1.358-1.362v-.681a.681.681,0,0,1,.679-.681h6.8c.016-.226.033-.45.047-.676A.225.225,0,0,0,528.745,1268.06Z" transform="translate(-483.558 -1103.954)"/>
      </g>
    </g>
  </g>
</svg>
