<svg xmlns="http://www.w3.org/2000/svg" xmlns:xlink="http://www.w3.org/1999/xlink" width="40.084" height="40.084" viewBox="0 0 40.084 40.084">
  <defs>
    <style>
      .cls-1 {
        fill: none;
      }

      .cls-2 {
        clip-path: url(#clip-path);
      }

      .cls-3 {
        fill: #5edfee;
      }
    </style>
    <clipPath id="clip-path">
      <rect class="cls-1" width="40.084" height="40.084"/>
    </clipPath>
  </defs>
  <g id="Crosshair" class="cls-2">
    <path id="Path_146" data-name="Path 146" class="cls-3" d="M102.69,81.645H98.646A15.3,15.3,0,0,0,85.19,67.918V64.145a.769.769,0,0,0-.769-.769H82.413a.769.769,0,0,0-.769.769v3.772A15.3,15.3,0,0,0,68.188,81.645H64.144a.769.769,0,0,0-.769.769v2.008a.769.769,0,0,0,.769.769h4.117A15.3,15.3,0,0,0,81.644,98.307v4.383a.769.769,0,0,0,.769.769h2.008a.769.769,0,0,0,.769-.769V98.307A15.3,15.3,0,0,0,98.573,85.191h4.117a.769.769,0,0,0,.769-.769V82.414A.769.769,0,0,0,102.69,81.645ZM85.19,94.483V91.634a.674.674,0,0,0-.674-.674h-2.2a.674.674,0,0,0-.674.674v2.848a11.514,11.514,0,0,1-9.55-9.291H75.2a.674.674,0,0,0,.674-.674v-2.2a.674.674,0,0,0-.674-.674H72a11.51,11.51,0,0,1,9.644-9.9V75.2a.674.674,0,0,0,.674.674h2.2a.674.674,0,0,0,.674-.674V71.742a11.51,11.51,0,0,1,9.644,9.9h-3.2a.674.674,0,0,0-.674.674v2.2a.674.674,0,0,0,.674.674h3.107A11.513,11.513,0,0,1,85.19,94.483Z" transform="translate(-63.375 -63.376)"/>
  </g>
</svg>
