<svg xmlns="http://www.w3.org/2000/svg" xmlns:xlink="http://www.w3.org/1999/xlink" width="144.333" height="42.667" viewBox="0 0 144.333 42.667">
  <defs>
    <style>
      .cls-1 {
        fill: none;
      }

      .cls-2 {
        clip-path: url(#clip-path);
      }

      .cls-3 {
        fill: #b8b7b3;
      }

      .cls-4 {
        fill: #d9d7d3;
      }

      .cls-5, .cls-6 {
        opacity: 0.5;
      }

      .cls-7 {
        fill: #595957;
      }

      .cls-8 {
        fill: #ededed;
      }

      .cls-9 {
        fill: #2b506e;
      }

      .cls-10 {
        fill: #fff;
      }

      .cls-11 {
        fill: #1f1f1f;
      }

      .cls-12 {
        fill: #7cb3de;
      }

      .cls-13 {
        fill: #36d7e9;
      }
    </style>
    <clipPath id="clip-path">
      <rect class="cls-1" width="144.333" height="42.667"/>
    </clipPath>
  </defs>
  <g id="Crusier" class="cls-2">
    <g id="Group_107" data-name="Group 107" transform="translate(960.333 -909) rotate(90)">
      <path id="Path_20" data-name="Path 20" class="cls-3" d="M930.333,816C926.515,816,909,837.259,909,852.912V953.756c0,3.183,2.7,6.577,7.351,6.577h27.965c4.648,0,7.351-3.394,7.351-6.577V852.912C951.667,837.259,934.152,816,930.333,816Z" transform="translate(0)"/>
      <path id="Path_21" data-name="Path 21" class="cls-4" d="M918.3,961.891a6.017,6.017,0,0,1-6.3-5.848V855.2c0-8.865,5.59-18.652,8.923-23.7,5.211-7.888,10.046-12.213,11.361-12.481,1.315.268,6.151,4.593,11.361,12.481,3.333,5.045,8.923,14.832,8.923,23.7V956.044a6.017,6.017,0,0,1-6.3,5.848Z" transform="translate(-1.951 -2.287)"/>
      <g id="Group_37" data-name="Group 37" transform="translate(909.336 816)">
        <path id="Path_22" data-name="Path 22" class="cls-5" d="M953.5,851.714c-1.148-7.839-5.756-15.821-8.656-20.211-5.211-7.888-10.046-12.213-11.361-12.481-1.315.268-6.151,4.593-11.361,12.481-2.648,4.009-6.719,11.012-8.281,18.168a31.79,31.79,0,0,0,1.692-3.585c.867-2.12,2.3-5.091,4.466-9.157,2.408-4.525,10.212-15.236,12.785-15.236s10.377,10.711,12.785,15.236c2.163,4.066,3.6,7.037,4.466,9.157C951.1,848.707,952.448,851.381,953.5,851.714Z" transform="translate(-912.481 -818.287)"/>
        <path id="Path_23" data-name="Path 23" class="cls-3" d="M930.959,816c-3.506,0-18.558,17.923-21,32.973,1.077.128,2.576-2.8,3.747-5.662.867-2.12,2.3-5.092,4.466-9.157,2.408-4.525,10.212-15.236,12.785-15.236s10.377,10.711,12.785,15.236c2.163,4.065,3.6,7.037,4.466,9.157,1.17,2.863,2.669,5.789,3.747,5.662C949.517,833.923,934.465,816,930.959,816Z" transform="translate(-909.962 -816)"/>
      </g>
      <g id="Group_38" data-name="Group 38" class="cls-6" transform="translate(919.163 827.177)">
        <ellipse id="Ellipse_4" data-name="Ellipse 4" cx="3.847" cy="2.673" rx="3.847" ry="2.673" transform="translate(6.974 0)"/>
        <path id="Path_24" data-name="Path 24" d="M939.107,900.766c1.021-.356,4.3.635,4.385,1.292-1.069,1.323-4.1,3.817-5,3.5S938.234,902.208,939.107,900.766Z" transform="translate(-938.059 -891.29)"/>
        <path id="Path_25" data-name="Path 25" d="M988.793,900.766c-1.021-.356-4.3.635-4.385,1.292,1.069,1.323,4.1,3.817,5,3.5S989.665,902.208,988.793,900.766Z" transform="translate(-968.198 -891.29)"/>
      </g>
      <g id="Group_39" data-name="Group 39" transform="translate(919.512 826.934)">
        <ellipse id="Ellipse_5" data-name="Ellipse 5" class="cls-7" cx="3.847" cy="2.673" rx="3.847" ry="2.673" transform="translate(6.974)"/>
        <path id="Path_26" data-name="Path 26" class="cls-7" d="M940.107,899.766c1.02-.356,4.3.635,4.385,1.292-1.069,1.323-4.1,3.817-5,3.5S939.234,901.208,940.107,899.766Z" transform="translate(-939.059 -890.29)"/>
        <path id="Path_27" data-name="Path 27" class="cls-7" d="M989.793,899.766c-1.021-.356-4.3.635-4.385,1.292,1.069,1.323,4.1,3.817,5,3.5S990.665,901.208,989.793,899.766Z" transform="translate(-969.198 -890.29)"/>
      </g>
      <g id="Group_41" data-name="Group 41" transform="translate(910.749 843.943)">
        <path id="Path_28" data-name="Path 28" class="cls-5" d="M951.771,958.635c0-10.118-.568-17.027-5.752-21.488C942.714,934.3,938.8,933,932.885,933s-9.829,1.3-13.133,4.147c-5.184,4.462-5.752,11.371-5.752,21.488a.868.868,0,0,1,0,.107v84.071a4.9,4.9,0,0,0,4.9,4.876h27.965a4.9,4.9,0,0,0,4.9-4.876V958.742c0-.036,0-.071-.005-.107Z" transform="translate(-914 -932.514)"/>
        <path id="Path_29" data-name="Path 29" class="cls-8" d="M948.018,935.146C944.714,932.3,940.8,931,934.885,931s-9.829,1.3-13.133,4.147c-5.184,4.462-5.752,11.371-5.752,21.488h37.771C953.771,946.517,953.2,939.608,948.018,935.146Z" transform="translate(-915.301 -931)"/>
        <path id="Path_30" data-name="Path 30" class="cls-8" d="M948.7,996.617c-4.041-2.516-7.7-3.583-13.81-3.583s-9.769,1.067-13.81,3.583c-3.008,1.873-5.075,4.452-5.075,7.085v84.071a4.9,4.9,0,0,0,4.9,4.876h27.965a4.9,4.9,0,0,0,4.9-4.876V1003.7C953.771,1001.069,951.7,998.49,948.7,996.617Z" transform="translate(-915.301 -977.961)"/>
        <g id="Group_40" data-name="Group 40" transform="translate(3.688 1.618)">
          <path id="Path_31" data-name="Path 31" class="cls-9" d="M943.735,937.659a16.4,16.4,0,0,0-14.125,7.292,22.627,22.627,0,0,1,28.251,0A16.4,16.4,0,0,0,943.735,937.659Z" transform="translate(-927.838 -937.659)"/>
          <path id="Path_32" data-name="Path 32" class="cls-9" d="M952.1,960.4a22.188,22.188,0,0,0-20.765,0c-3.457,1.738-4.306,2.951-4.828,3.862,2.708-1.3,9.032-4.013,15.211-4.013s12.5,2.717,15.211,4.013C956.406,963.354,955.557,962.141,952.1,960.4Z" transform="translate(-925.82 -952.924)"/>
          <path id="Path_33" data-name="Path 33" class="cls-9" d="M952.454,978.48a27.072,27.072,0,0,0-24.026,0A10,10,0,0,0,924.544,982a33.318,33.318,0,0,1,7.263-2.8,34.442,34.442,0,0,1,17.268,0,33.316,33.316,0,0,1,7.263,2.8A10,10,0,0,0,952.454,978.48Z" transform="translate(-924.544 -966.433)"/>
        </g>
      </g>
      <g id="Group_48" data-name="Group 48" transform="translate(912.497 859.745)">
        <path id="Path_34" data-name="Path 34" class="cls-10" d="M922.854,1094.191a4.072,4.072,0,0,1-3.854-4.147v-84.071c0-2.288,1.723-4.672,4.726-6.542,4.029-2.509,7.46-3.4,13.11-3.4s9.081.889,13.11,3.4c3,1.87,4.726,4.254,4.726,6.542v84.071a4.072,4.072,0,0,1-3.854,4.147Z" transform="translate(-919 -996.033)"/>
        <g id="Group_43" data-name="Group 43" transform="translate(7.271 80.663)">
          <path id="Path_35" data-name="Path 35" class="cls-5" d="M954.456,1331h-10.3c-1.653,0-4.367,1-4.367,3.42,0,6.432,1.041,9.2,2.565,9.893a11.261,11.261,0,0,0,3.138.616,2.463,2.463,0,0,0,1.714.619h4.2a2.463,2.463,0,0,0,1.714-.619,11.261,11.261,0,0,0,3.138-.616c1.524-.7,2.565-3.462,2.565-9.893C958.822,1332,956.109,1331,954.456,1331Z" transform="translate(-939.79 -1330.271)"/>
          <g id="Group_42" data-name="Group 42" transform="translate(1.049)">
            <path id="Path_36" data-name="Path 36" class="cls-4" d="M961.822,1331.421c0,6.429-1.042,9.195-2.563,9.892a13.423,13.423,0,0,1-3.819.673c-1.647.122-3.133.122-3.133.122a40.755,40.755,0,0,1-5.246-.352,7.239,7.239,0,0,1-1.707-.442c-1.521-.7-2.563-3.463-2.563-9.892,0-2.423,2.714-3.421,4.368-3.421h10.3C959.108,1328,961.822,1329,961.822,1331.421Z" transform="translate(-942.79 -1328)"/>
            <path id="Path_37" data-name="Path 37" class="cls-5" d="M963.393,1354.338v6.318a.861.861,0,0,1-.014.165c-1.647.122-3.134.122-3.134.122a40.783,40.783,0,0,1-5.246-.352v-6.252c0-.807.941-1.458,2.1-1.458h4.2C962.453,1352.88,963.393,1353.531,963.393,1354.338Z" transform="translate(-950.73 -1346.834)"/>
            <rect id="Rectangle_2" data-name="Rectangle 2" class="cls-11" width="8.393" height="9.233" rx="4.197" transform="translate(5.319 5.315)"/>
          </g>
        </g>
        <g id="Group_45" data-name="Group 45" transform="translate(7.271 7.282)">
          <path id="Path_38" data-name="Path 38" class="cls-5" d="M954.456,1029h-10.3c-1.653,0-4.367,1-4.367,3.42,0,6.432,1.041,9.2,2.565,9.893a11.27,11.27,0,0,0,3.138.616,2.462,2.462,0,0,0,1.714.619h4.2a2.462,2.462,0,0,0,1.714-.619,11.27,11.27,0,0,0,3.138-.616c1.524-.7,2.565-3.462,2.565-9.893C958.822,1030,956.109,1029,954.456,1029Z" transform="translate(-939.79 -1028.271)"/>
          <g id="Group_44" data-name="Group 44" transform="translate(1.049)">
            <path id="Path_39" data-name="Path 39" class="cls-4" d="M961.822,1029.421c0,6.429-1.042,9.195-2.563,9.892a13.423,13.423,0,0,1-3.819.673c-1.647.122-3.133.122-3.133.122a40.741,40.741,0,0,1-5.246-.353,7.233,7.233,0,0,1-1.707-.442c-1.521-.7-2.563-3.463-2.563-9.892,0-2.423,2.714-3.421,4.368-3.421h10.3C959.108,1026,961.822,1027,961.822,1029.421Z" transform="translate(-942.79 -1026)"/>
            <path id="Path_40" data-name="Path 40" class="cls-5" d="M963.393,1052.338v6.318a.863.863,0,0,1-.014.165c-1.647.121-3.134.121-3.134.121a40.769,40.769,0,0,1-5.246-.352v-6.252c0-.807.941-1.458,2.1-1.458h4.2C962.453,1050.88,963.393,1051.531,963.393,1052.338Z" transform="translate(-950.73 -1044.834)"/>
            <rect id="Rectangle_3" data-name="Rectangle 3" class="cls-11" width="8.393" height="9.233" rx="4.197" transform="translate(5.319 5.315)"/>
          </g>
        </g>
        <path id="Path_41" data-name="Path 41" class="cls-5" d="M936.448,1111.916h-2.1c-.193,0-.35-.109-.35-.243v-2.43c0-.134.157-.243.35-.243h2.1c.193,0,.35.109.35.243v2.43C936.8,1111.807,936.641,1111.916,936.448,1111.916Zm5.945-.243v-2.43c0-.134-.157-.243-.35-.243h-2.1c-.193,0-.35.109-.35.243v2.43c0,.134.157.243.35.243h2.1C942.237,1111.916,942.393,1111.807,942.393,1111.673Zm-5.6,6.075v-2.43c0-.134-.157-.243-.35-.243h-2.1c-.193,0-.35.109-.35.243v2.43c0,.134.157.243.35.243h2.1C936.641,1117.99,936.8,1117.881,936.8,1117.747Zm5.6,0v-2.43c0-.134-.157-.243-.35-.243h-2.1c-.193,0-.35.109-.35.243v2.43c0,.134.157.243.35.243h2.1C942.237,1117.99,942.393,1117.881,942.393,1117.747Zm-5.6,6.075v-2.43c0-.134-.157-.243-.35-.243h-2.1c-.193,0-.35.109-.35.243v2.43c0,.134.157.243.35.243h2.1C936.641,1124.065,936.8,1123.956,936.8,1123.822Zm5.6,0v-2.43c0-.134-.157-.243-.35-.243h-2.1c-.193,0-.35.109-.35.243v2.43c0,.134.157.243.35.243h2.1C942.237,1124.065,942.393,1123.956,942.393,1123.822Zm13.639-11.906h2.1c.193,0,.35-.109.35-.243v-2.43c0-.134-.157-.243-.35-.243h-2.1c-.193,0-.35.109-.35.243v2.43C955.683,1111.807,955.84,1111.916,956.033,1111.916Zm-5.6,0h2.1c.193,0,.35-.109.35-.243v-2.43c0-.134-.157-.243-.35-.243h-2.1c-.193,0-.35.109-.35.243v2.43C950.087,1111.807,950.244,1111.916,950.437,1111.916Zm5.6,6.075h2.1c.193,0,.35-.109.35-.243v-2.43c0-.134-.157-.243-.35-.243h-2.1c-.193,0-.35.109-.35.243v2.43C955.683,1117.881,955.84,1117.99,956.033,1117.99Zm-5.6,0h2.1c.193,0,.35-.109.35-.243v-2.43c0-.134-.157-.243-.35-.243h-2.1c-.193,0-.35.109-.35.243v2.43C950.087,1117.881,950.244,1117.99,950.437,1117.99Zm5.6,6.075h2.1c.193,0,.35-.109.35-.243v-2.43c0-.134-.157-.243-.35-.243h-2.1c-.193,0-.35.109-.35.243v2.43C955.683,1123.956,955.84,1124.065,956.033,1124.065Zm-5.6,0h2.1c.193,0,.35-.109.35-.243v-2.43c0-.134-.157-.243-.35-.243h-2.1c-.193,0-.35.109-.35.243v2.43C950.087,1123.956,950.244,1124.065,950.437,1124.065Z" transform="translate(-928.754 -1081.55)"/>
        <g id="Group_46" data-name="Group 46" transform="translate(5.596 27.206)">
          <rect id="Rectangle_4" data-name="Rectangle 4" class="cls-7" width="2.798" height="2.916" rx="1"/>
          <rect id="Rectangle_5" data-name="Rectangle 5" class="cls-7" width="2.798" height="2.916" rx="1" transform="translate(5.596)"/>
          <rect id="Rectangle_6" data-name="Rectangle 6" class="cls-7" width="2.798" height="2.916" rx="1" transform="translate(0 6.075)"/>
          <rect id="Rectangle_7" data-name="Rectangle 7" class="cls-7" width="2.798" height="2.916" rx="1" transform="translate(5.596 6.075)"/>
          <rect id="Rectangle_8" data-name="Rectangle 8" class="cls-7" width="2.798" height="2.916" rx="1" transform="translate(0 12.149)"/>
          <rect id="Rectangle_9" data-name="Rectangle 9" class="cls-7" width="2.798" height="2.916" rx="1" transform="translate(5.596 12.149)"/>
          <rect id="Rectangle_10" data-name="Rectangle 10" class="cls-7" width="2.798" height="2.916" rx="1" transform="translate(24.481 2.916) rotate(180)"/>
          <rect id="Rectangle_11" data-name="Rectangle 11" class="cls-7" width="2.798" height="2.916" rx="1" transform="translate(18.885 2.916) rotate(180)"/>
          <rect id="Rectangle_12" data-name="Rectangle 12" class="cls-7" width="2.798" height="2.916" rx="1" transform="translate(24.481 8.99) rotate(180)"/>
          <rect id="Rectangle_13" data-name="Rectangle 13" class="cls-7" width="2.798" height="2.916" rx="1" transform="translate(18.885 8.99) rotate(180)"/>
          <rect id="Rectangle_14" data-name="Rectangle 14" class="cls-7" width="2.798" height="2.916" rx="1" transform="translate(24.481 15.065) rotate(180)"/>
          <rect id="Rectangle_15" data-name="Rectangle 15" class="cls-7" width="2.798" height="2.916" rx="1" transform="translate(18.885 15.065) rotate(180)"/>
        </g>
        <g id="Group_47" data-name="Group 47" transform="translate(8.743 51.505)">
          <rect id="Rectangle_16" data-name="Rectangle 16" class="cls-12" width="18.186" height="22.355" rx="9.093"/>
          <rect id="Rectangle_17" data-name="Rectangle 17" class="cls-13" width="20.897" height="16.087" rx="7" transform="translate(17.137 0.729) rotate(90)"/>
        </g>
      </g>
    </g>
  </g>
</svg>
