<svg xmlns="http://www.w3.org/2000/svg" xmlns:xlink="http://www.w3.org/1999/xlink" width="96" height="35" viewBox="0 0 96 35">
  <defs>
    <style>
      .cls-1 {
        fill: none;
      }

      .cls-2 {
        clip-path: url(#clip-path);
      }

      .cls-3 {
        fill: #72727a;
      }

      .cls-4 {
        fill: #d9d7d3;
      }

      .cls-5 {
        fill: #e4e7ed;
      }

      .cls-12, .cls-6 {
        opacity: 0.5;
      }

      .cls-7 {
        fill: #fff;
      }

      .cls-8 {
        fill: #eceff5;
      }

      .cls-9 {
        fill: #8b8b96;
      }

      .cls-10 {
        fill: #7cb3de;
      }

      .cls-11 {
        fill: #36d7e9;
      }

      .cls-13 {
        fill: #bdbdcc;
      }

      .cls-14 {
        fill: #2b506e;
      }
    </style>
    <clipPath id="clip-path">
      <rect class="cls-1" width="35" height="96"/>
    </clipPath>
  </defs>
  <g id="Destroyer" class="cls-2" transform="translate(96) rotate(90)">
    <g id="Group_71" data-name="Group 71" transform="translate(-0.333)">
      <g id="Group_50" data-name="Group 50">
        <path id="Path_42" data-name="Path 42" class="cls-3" d="M1129.333,883c-2.985-3.2-5.679-5-9-5s-7.015,1.8-10,5c-4.421,4.736-8,10.338-8,15v61c0,4.012,1.092,9.707,4,12,2.111,1.665,6.066,3,14,3s10.89-1.335,13-3c2.908-2.293,4-7.988,4-12V898C1137.333,893.338,1133.754,887.736,1129.333,883Z" transform="translate(-1102 -878)"/>
        <path id="Path_43" data-name="Path 43" class="cls-4" d="M1122.546,975.459c-7.865,0-11.114-.512-13-2-2.735-2.157-5-8.065-5-12v-61c0-4.923,5.314-10.052,9-14,3.034-3.251,6.168-5,9-5s4.965,1.749,8,5c3.685,3.948,9,9.077,9,14v61c0,3.935-2.266,9.843-5,12C1132.66,974.946,1130.411,975.459,1122.546,975.459Z" transform="translate(-1104.213 -880.459)"/>
        <path id="Path_44" data-name="Path 44" class="cls-5" d="M1136.5,975.116c-1.374-1.3-6.5-3-12-3s-9.626,1.7-11,3c-4.074,3.844-4,9.527-4,13v39c0,10.466,1.3,14.609,4,17,2.329,2.065,3.98,3,11,3s9.671-.935,12-3c2.7-2.391,4-6.534,4-17v-39C1140.5,984.643,1140.571,978.96,1136.5,975.116Z" transform="translate(-1107.164 -955.116)"/>
        <path id="Path_45" data-name="Path 45" class="cls-6" d="M1134.022,976.755c-1.374-1.3-5.5-3-11-3s-10.626,1.7-12,3c-4.074,3.844-4,9.527-4,13v39c0,10.466,1.3,15.609,4,18,2.329,2.065,4.98,2,12,2s9.671.065,12-2c2.7-2.391,4-7.534,4-18v-39C1139.022,986.282,1138.1,980.6,1134.022,976.755Z" transform="translate(-1105.689 -956.755)"/>
        <path id="Path_46" data-name="Path 46" class="cls-5" d="M1136.5,975.116c-1.374-1.3-6.5-3-12-3s-9.626,1.7-11,3c-4.074,3.844-4,9.527-4,13v39c0,10.466,1.3,14.609,4,17,2.329,2.065,3.98,3,11,3s9.671-.935,12-3c2.7-2.391,4-6.534,4-17v-39C1140.5,984.643,1140.571,978.96,1136.5,975.116Z" transform="translate(-1107.164 -955.116)"/>
        <path id="Path_47" data-name="Path 47" class="cls-7" d="M1129.293,1022.92c-9.223,0-14,3.234-14,7v34c0,6.343.593,12.939,3,15s4.648,3,11,3,9.593-.939,12-3,3-8.657,3-15v-34C1144.293,1026.154,1138.516,1022.92,1129.293,1022.92Z" transform="translate(-1111.959 -996.92)"/>
      </g>
      <g id="Group_52" data-name="Group 52" transform="translate(12.064 5.865)">
        <g id="Group_51" data-name="Group 51">
          <ellipse id="Ellipse_6" data-name="Ellipse 6" class="cls-6" cx="5.5" cy="4" rx="5.5" ry="4" transform="translate(0.27 0.135)"/>
          <ellipse id="Ellipse_7" data-name="Ellipse 7" class="cls-8" cx="5.5" cy="3.5" rx="5.5" ry="3.5" transform="translate(0.27 0.135)"/>
          <path id="Path_48" data-name="Path 48" class="cls-9" d="M1154.007,917.635c-3.037,0-5-.911-5-3s1.963-4,5-4,6,1.911,6,4S1157.044,917.635,1154.007,917.635Zm0-7a3.853,3.853,0,0,0-4,4c0,1.891,1.252,3,4,3s5-1.109,5-3S1156.755,910.635,1154.007,910.635Z" transform="translate(-1148.738 -910.5)"/>
        </g>
        <path id="Path_49" data-name="Path 49" class="cls-3" d="M1161.951,919.238l-2,1,2,1,1-1h1l-4,3h-1l2-2-2-1-1,1h-1l4-3Z" transform="translate(-1154.681 -917.103)"/>
      </g>
      <path id="Rectangle_18" data-name="Rectangle 18" class="cls-6" d="M4.154,0H9.846A4.154,4.154,0,0,1,14,4.154v0A1.846,1.846,0,0,1,12.154,6H1.846A1.846,1.846,0,0,1,0,4.154v0A4.154,4.154,0,0,1,4.154,0Z" transform="translate(10.333 34)"/>
      <path id="Path_50" data-name="Path 50" class="cls-6" d="M1146.777,1205.583a41,41,0,0,0-18,0c-.471.148-.7-.14-1,0-.5.237-1,.58-1,1v3a1.091,1.091,0,0,0,1,1h20a1.09,1.09,0,0,0,1-1v-3c0-.42-.5-.763-1-1C1147.478,1205.442,1147.248,1205.731,1146.777,1205.583Z" transform="translate(-1120.444 -1145.583)"/>
      <path id="Rectangle_19" data-name="Rectangle 19" class="cls-4" d="M3.462,0h8.077A3.462,3.462,0,0,1,15,3.462v0A1.538,1.538,0,0,1,13.462,5H1.538A1.538,1.538,0,0,1,0,3.462v0A3.462,3.462,0,0,1,3.462,0Z" transform="translate(10.333 34)"/>
      <path id="Path_58" data-name="Path 58" class="cls-4" d="M1148.253,1202.943c-1.71-.537-4.783,0-9,0s-6.29-.537-8,0c-.471.148-.7.86-1,1-.5.237-1,.58-1,1v2a1.09,1.09,0,0,0,1,1h19a1.09,1.09,0,0,0,1-1v-2c0-.42-.5-.763-1-1C1148.953,1203.8,1148.723,1203.091,1148.253,1202.943Z" transform="translate(-1121.919 -1143.943)"/>
      <g id="Group_68" data-name="Group 68" transform="translate(19.839 68.273)">
        <path id="Path_59" data-name="Path 59" class="cls-10" d="M1180.143,1269.071a7.649,7.649,0,0,1-2,0c-.44-.271,0-1.183,0-7,0-2.787-.655-4.513,0-5a7.146,7.146,0,0,1,4-1c1.5,0,3.6-.074,4,0,1.109.208,1,1.486,1,3a22.721,22.721,0,0,1-1,6c-.7,2.511-2.04,3.764-3,4a20.333,20.333,0,0,1-3,0Z" transform="translate(-1177.649 -1256.344)"/>
        <path id="Path_60" data-name="Path 60" class="cls-11" d="M1181.618,1270.71a5.6,5.6,0,0,1-1,0c-.287-.177-1-1.431-1-7,0-1.993.436-4.581,1-5a24.617,24.617,0,0,1,3,0c1.514,0,2.687-.059,3,0a2.35,2.35,0,0,1,2,2,22.98,22.98,0,0,1-1,6c-.654,2.356-2.2,3.8-3,4A22.589,22.589,0,0,1,1181.618,1270.71Z" transform="translate(-1179.124 -1257.983)"/>
        <g id="Group_61" data-name="Group 61" class="cls-12" transform="translate(1.504 1.073)">
          <path id="Path_61" data-name="Path 61" class="cls-7" d="M1183.375,1263.943c-.067,0,.051.035,0,0a1.664,1.664,0,0,1,0-1l1-1a2.389,2.389,0,0,1,1,0,1.664,1.664,0,0,1,0,1l-2,1C1183.324,1263.979,1183.442,1263.943,1183.375,1263.943Z" transform="translate(-1183.386 -1262.289)"/>
        </g>
        <g id="Group_62" data-name="Group 62" class="cls-12" transform="translate(1.504 1.386)">
          <path id="Path_62" data-name="Path 62" class="cls-7" d="M1183.375,1266.367c-.067,0,.051.035,0,0-.1-.07-.1.071,0,0l3-2c.1-.07-.1-.07,0,0s.1-.07,0,0l-3,2C1183.324,1266.4,1183.442,1266.367,1183.375,1266.367Z" transform="translate(-1183.386 -1264.026)"/>
        </g>
        <g id="Group_63" data-name="Group 63" class="cls-12" transform="translate(5.176 2.164)">
          <path id="Path_63" data-name="Path 63" class="cls-7" d="M1197.7,1269.9c-.067,0,.051.035,0,0-.1-.071-.1.07,0,0l2-2c.1-.071-.1-.071,0,0a1.662,1.662,0,0,1,0,1l-2,1C1197.652,1269.934,1197.771,1269.9,1197.7,1269.9Z" transform="translate(-1197.386 -1268.336)"/>
        </g>
        <g id="Group_64" data-name="Group 64" class="cls-12" transform="translate(3.529 5.855)">
          <path id="Path_64" data-name="Path 64" class="cls-7" d="M1191.07,1290.664c-.067,0,.052.035,0,0-.1-.07-.1.071,0,0l3-2c.1-.071-.1-.071,0,0s.1-.071,0,0l-3,2C1191.019,1290.7,1191.137,1290.664,1191.07,1290.664Z" transform="translate(-1191.104 -1288.792)"/>
        </g>
        <g id="Group_65" data-name="Group 65" class="cls-12" transform="translate(3.529 9.185)">
          <path id="Path_65" data-name="Path 65" class="cls-7" d="M1191.07,1309.786c-.067,0,.052.035,0,0a1.671,1.671,0,0,1,0-1l3-1c.1-.07-.1-.07,0,0s.1-.07,0,0l-3,2C1191.019,1309.821,1191.137,1309.786,1191.07,1309.786Z" transform="translate(-1191.104 -1307.244)"/>
        </g>
        <g id="Group_66" data-name="Group 66" class="cls-12" transform="translate(2.553 8.709)">
          <path id="Path_66" data-name="Path 66" class="cls-7" d="M1187.326,1305.624c-.067,0,.051.035,0,0-.1-.071-.1.071,0,0l2-1c.1-.07-.1-.07,0,0s.1-.071,0,0l-1,1A9.487,9.487,0,0,1,1187.326,1305.624Z" transform="translate(-1187.386 -1304.605)"/>
        </g>
        <g id="Group_67" data-name="Group 67" class="cls-12" transform="translate(5.963 6.363)">
          <path id="Path_67" data-name="Path 67" class="cls-7" d="M1200.917,1292.97c-.067,0,.051.035,0,0-.1-.07-.1.071,0,0l1-1c.1-.07-.1-.07,0,0s.1-.071,0,0l-1,1C1200.866,1293.005,1200.984,1292.97,1200.917,1292.97Z" transform="translate(-1200.386 -1291.605)"/>
        </g>
      </g>
      <path id="Path_68" data-name="Path 68" class="cls-6" d="M1142.63,1265.755h-3c-.29,0-1,.2-1,0v-1c0-.2.71,0,1,0h3c.29,0,1-.2,1,0v1C1143.63,1265.955,1142.92,1265.755,1142.63,1265.755Zm1,3v-1c0-.2-.71,0-1,0h-3c-.29,0-1-.2-1,0v1c0,.2.71,0,1,0h3C1142.92,1268.755,1143.63,1268.955,1143.63,1268.755Zm0,3v-1c0-.2-.71,0-1,0h-3c-.29,0-1-.2-1,0v1c0,.2.71,0,1,0h3C1142.92,1271.755,1143.63,1271.955,1143.63,1271.755Zm0,3v-1c0-.2-.71-1-1-1h-3c-.29,0-1,.8-1,1v1c0,.2.71,0,1,0h3C1142.92,1274.755,1143.63,1274.955,1143.63,1274.755Z" transform="translate(-1129.297 -1194.755)"/>
      <g id="Group_69" data-name="Group 69" transform="translate(9.966 69.564)">
        <rect id="Rectangle_20" data-name="Rectangle 20" class="cls-13" width="4" height="1" rx="0.5" transform="translate(0.368 0.436)"/>
        <rect id="Rectangle_21" data-name="Rectangle 21" class="cls-13" width="4" height="2" rx="1" transform="translate(0.368 2.436)"/>
        <rect id="Rectangle_22" data-name="Rectangle 22" class="cls-13" width="4" height="2" rx="1" transform="translate(0.368 5.436)"/>
        <rect id="Rectangle_23" data-name="Rectangle 23" class="cls-13" width="4" height="2" rx="1" transform="translate(0.368 8.436)"/>
      </g>
      <g id="Group_70" data-name="Group 70" transform="translate(22.029 47.91)">
        <ellipse id="Ellipse_8" data-name="Ellipse 8" class="cls-6" cx="2.5" cy="2" rx="2.5" ry="2" transform="translate(0.304 0.09)"/>
        <ellipse id="Ellipse_9" data-name="Ellipse 9" class="cls-13" cx="2.5" cy="2" rx="2.5" ry="2" transform="translate(0.304 0.09)"/>
        <ellipse id="Ellipse_10" data-name="Ellipse 10" class="cls-5" cx="2" cy="1.5" rx="2" ry="1.5" transform="translate(1.304 0.09)"/>
      </g>
    </g>
    <g id="Group_72" data-name="Group 72" transform="translate(4.27 81.185)">
      <path id="Path_69" data-name="Path 69" class="cls-14" d="M1146.415,1370.6a27.956,27.956,0,0,1-8,1,37.407,37.407,0,0,1-9-1c-1-.26-3-1-3-1s.848.431,2,1c1.552.766,6,1,10,1s7.448-.234,9-1c1.152-.569,2-1,2-1S1147.412,1370.34,1146.415,1370.6Z" transform="translate(-1124.685 -1361.785)"/>
      <path id="Path_70" data-name="Path 70" class="cls-14" d="M1143.565,1360.795a38.3,38.3,0,0,1-8,1,27.081,27.081,0,0,1-7-1c-1.289-.3-3.935-.391-5-1,.245.417,1.1.568,2,1a12.352,12.352,0,0,0,3,1,32.722,32.722,0,0,0,7,1,44.894,44.894,0,0,0,8-1,12.351,12.351,0,0,0,3-1c.9-.432,1.755-.583,2-1C1147.5,1360.4,1144.855,1360.5,1143.565,1360.795Z" transform="translate(-1122.835 -1353.98)"/>
      <path id="Path_71" data-name="Path 71" class="cls-14" d="M1141.5,1348.057a41.933,41.933,0,0,1-7,1,55.952,55.952,0,0,1-8-1,11.724,11.724,0,0,1-5-3,6.428,6.428,0,0,0,2,3,10.031,10.031,0,0,0,3,1c1.962.45,6.531,0,8,0s5.038.45,7,0a10.028,10.028,0,0,0,3-1,6.429,6.429,0,0,0,2-3A11.723,11.723,0,0,1,1141.5,1348.057Z" transform="translate(-1120.771 -1342.242)"/>
      <path id="Path_72" data-name="Path 72" class="cls-14" d="M1140.283,1331.717a28.68,28.68,0,0,1-8,1,20.845,20.845,0,0,1-7-1c-1.787-.592-5-2.357-6-4a4.724,4.724,0,0,0,2,3,15.631,15.631,0,0,0,4,2,29.37,29.37,0,0,0,7,1,38.523,38.523,0,0,0,8-1,15.629,15.629,0,0,0,4-2,4.724,4.724,0,0,0,2-3C1145.282,1329.359,1142.069,1331.124,1140.283,1331.717Z" transform="translate(-1119.553 -1327.902)"/>
    </g>
    <g id="Group_73" data-name="Group 73" transform="translate(4.27 17.932)">
      <path id="Path_73" data-name="Path 73" class="cls-14" d="M1147.3,979.439c-1.478-.935-6-2-10-2a19.04,19.04,0,0,0-9,2,10.769,10.769,0,0,0-2,2,18.627,18.627,0,0,1,3-2,25.554,25.554,0,0,1,8-1c2.909,0,7.067.268,9,1a18.632,18.632,0,0,1,3,2A10.769,10.769,0,0,0,1147.3,979.439Z" transform="translate(-1124.573 -977.371)"/>
      <path id="Path_74" data-name="Path 74" class="cls-14" d="M1146.565,991.2a21.623,21.623,0,0,0-3-1,45.969,45.969,0,0,0-8-1,35.793,35.793,0,0,0-7,1,21.618,21.618,0,0,0-3,1,8.416,8.416,0,0,0-2,1,30.318,30.318,0,0,1,5-1,41.592,41.592,0,0,1,7-1,56.684,56.684,0,0,1,8,1,30.306,30.306,0,0,1,5,1A8.412,8.412,0,0,0,1146.565,991.2Z" transform="translate(-1122.835 -987.128)"/>
      <path id="Path_75" data-name="Path 75" class="cls-14" d="M1145.043,1002.32a16.647,16.647,0,0,0-3-1,40.036,40.036,0,0,0-7-1,50.919,50.919,0,0,0-8,1,16.654,16.654,0,0,0-3,1,6.156,6.156,0,0,0-2,2,27.954,27.954,0,0,1,5-2,69.039,69.039,0,0,1,8-1,50.222,50.222,0,0,1,7,1,27.951,27.951,0,0,1,5,2A6.152,6.152,0,0,0,1145.043,1002.32Z" transform="translate(-1121.313 -996.252)"/>
      <path id="Path_76" data-name="Path 76" class="cls-14" d="M1144.283,1013.444a11.907,11.907,0,0,0-3-1,57.485,57.485,0,0,0-9-1,45.989,45.989,0,0,0-8,1,11.9,11.9,0,0,0-3,1,4.567,4.567,0,0,0-2,2c1.64-1.105,4.3-1.6,6-2a25.137,25.137,0,0,1,7-1,34.888,34.888,0,0,1,8,1c1.7.4,4.36.895,6,2A4.566,4.566,0,0,0,1144.283,1013.444Z" transform="translate(-1119.553 -1005.376)"/>
    </g>
  </g>
</svg>
